<svg width="30" height="31" viewBox="0 0 30 31" fill="none" xmlns="http://www.w3.org/2000/svg">
<path fill-rule="evenodd" clip-rule="evenodd" d="M8.75 3.52051C5.8505 3.52051 3.5 5.87101 3.5 8.77051V21.2705C3.5 24.17 5.8505 26.5205 8.75 26.5205H21.25C24.1495 26.5205 26.5 24.17 26.5 21.2705V8.77051C26.5 5.87101 24.1495 3.52051 21.25 3.52051H8.75ZM1.5 8.77051C1.5 4.76644 4.74594 1.52051 8.75 1.52051H21.25C25.2541 1.52051 28.5 4.76644 28.5 8.77051V21.2705C28.5 25.2746 25.2541 28.5205 21.25 28.5205H8.75C4.74594 28.5205 1.5 25.2746 1.5 21.2705V8.77051Z" fill="#02897A"/>
<path fill-rule="evenodd" clip-rule="evenodd" d="M15.6405 11.0096C14.8082 10.8862 13.9582 11.0283 13.2114 11.4158C12.4646 11.8033 11.859 12.4164 11.4808 13.168C11.1025 13.9195 10.9709 14.7711 11.1045 15.6018C11.2382 16.4325 11.6304 17.1998 12.2253 17.7947C12.8202 18.3897 13.5876 18.7818 14.4182 18.9155C15.2489 19.0492 16.1006 18.9175 16.8521 18.5393C17.6036 18.161 18.2167 17.5554 18.6042 16.8086C18.9917 16.0618 19.1339 15.2118 19.0105 14.3796C18.8846 13.5307 18.489 12.7447 17.8821 12.1379C17.2753 11.531 16.4894 11.1355 15.6405 11.0096ZM12.2903 9.64058C13.4105 9.05933 14.6855 8.8461 15.9338 9.03121C17.2072 9.22004 18.3861 9.81341 19.2964 10.7237C20.2066 11.6339 20.8 12.8128 20.9888 14.0862C21.1739 15.3346 20.9607 16.6095 20.3795 17.7297C19.7982 18.8499 18.8785 19.7583 17.7513 20.3257C16.624 20.8931 15.3465 21.0906 14.1005 20.8901C12.8545 20.6896 11.7035 20.1013 10.8111 19.209C9.91869 18.3166 9.33042 17.1655 9.12992 15.9195C8.92942 14.6735 9.12692 13.3961 9.69431 12.2688C10.2617 11.1415 11.1701 10.2218 12.2903 9.64058Z" fill="#02897A"/>
<path fill-rule="evenodd" clip-rule="evenodd" d="M20.875 8.14551C20.875 7.59322 21.3227 7.14551 21.875 7.14551H21.8876C22.4399 7.14551 22.8876 7.59322 22.8876 8.14551C22.8876 8.69779 22.4399 9.14551 21.8876 9.14551H21.875C21.3227 9.14551 20.875 8.69779 20.875 8.14551Z" fill="#02897A"/>
</svg>
