<svg width="50" height="50" viewBox="0 0 50 50" fill="none" xmlns="http://www.w3.org/2000/svg">
<rect width="50" height="50" rx="25" fill="#F4F5F7"/>
<path d="M31 23H37L34 19L31 23ZM31 27H37L34 31L31 27Z" fill="#D6B1FF"/>
<path d="M14 13H20V37H14C13.7348 37 13.4804 36.8946 13.2929 36.7071C13.1054 36.5196 13 36.2652 13 36V14C13 13.7348 13.1054 13.4804 13.2929 13.2929C13.4804 13.1054 13.7348 13 14 13Z" fill="#02897A"/>
<path d="M22 13H28C28.2652 13 28.5196 13.1054 28.7071 13.2929C28.8946 13.4804 29 13.7348 29 14V36C29 36.2652 28.8946 36.5196 28.7071 36.7071C28.5196 36.8946 28.2652 37 28 37H22V13Z" fill="#02897A"/>
</svg>
