<svg width="50" height="50" viewBox="0 0 50 50" fill="none" xmlns="http://www.w3.org/2000/svg">
<rect width="50" height="50" rx="25" fill="#F4F5F7"/>
<path d="M34 37H25C24.7348 37 24.4804 36.8946 24.2929 36.7071C24.1054 36.5196 24 36.2652 24 36V34C24 33.7348 24.1054 33.4804 24.2929 33.2929C24.4804 33.1054 24.7348 33 25 33H34C34.2652 33 34.5196 33.1054 34.7071 33.2929C34.8946 33.4804 35 33.7348 35 34V36C35 36.2652 34.8946 36.5196 34.7071 36.7071C34.5196 36.8946 34.2652 37 34 37Z" fill="#D6B1FF"/>
<path d="M34 13H16C15.7348 13 15.4804 13.1054 15.2929 13.2929C15.1054 13.4804 15 13.7348 15 14V16C15 16.2652 15.1054 16.5196 15.2929 16.7071C15.4804 16.8946 15.7348 17 16 17H34C34.2652 17 34.5196 16.8946 34.7071 16.7071C34.8946 16.5196 35 16.2652 35 16V14C35 13.7348 34.8946 13.4804 34.7071 13.2929C34.5196 13.1054 34.2652 13 34 13Z" fill="#11B5E4"/>
<path d="M34 19H16C15.7348 19 15.4804 19.1054 15.2929 19.2929C15.1054 19.4804 15 19.7348 15 20V30C15 30.2652 15.1054 30.5196 15.2929 30.7071C15.4804 30.8946 15.7348 31 16 31H34C34.2652 31 34.5196 30.8946 34.7071 30.7071C34.8946 30.5196 35 30.2652 35 30V20C35 19.7348 34.8946 19.4804 34.7071 19.2929C34.5196 19.1054 34.2652 19 34 19Z" fill="#11B5E4"/>
</svg>
