<svg width="50" height="50" viewBox="0 0 50 50" fill="none" xmlns="http://www.w3.org/2000/svg">
<rect width="50" height="50" rx="25" fill="#F4F5F7"/>
<path d="M18 14H15C14.7348 14 14.4804 14.1054 14.2929 14.2929C14.1054 14.4804 14 14.7348 14 15V35C14 35.2652 14.1054 35.5196 14.2929 35.7071C14.4804 35.8946 14.7348 36 15 36H18V14Z" fill="#D6B1FF"/>
<path d="M20 36H30V14H20V36ZM25 32C24.7348 32 24.4804 31.8946 24.2929 31.7071C24.1054 31.5196 24 31.2652 24 31C24 30.7348 24.1054 30.4804 24.2929 30.2929C24.4804 30.1054 24.7348 30 25 30C25.2652 30 25.5196 30.1054 25.7071 30.2929C25.8946 30.4804 26 30.7348 26 31C26 31.2652 25.8946 31.5196 25.7071 31.7071C25.5196 31.8946 25.2652 32 25 32ZM25 18C25.2652 18 25.5196 18.1054 25.7071 18.2929C25.8946 18.4804 26 18.7348 26 19C26 19.2652 25.8946 19.5196 25.7071 19.7071C25.5196 19.8946 25.2652 20 25 20C24.7348 20 24.4804 19.8946 24.2929 19.7071C24.1054 19.5196 24 19.2652 24 19C24 18.7348 24.1054 18.4804 24.2929 18.2929C24.4804 18.1054 24.7348 18 25 18ZM25 24C25.2652 24 25.5196 24.1054 25.7071 24.2929C25.8946 24.4804 26 24.7348 26 25C26 25.2652 25.8946 25.5196 25.7071 25.7071C25.5196 25.8946 25.2652 26 25 26C24.7348 26 24.4804 25.8946 24.2929 25.7071C24.1054 25.5196 24 25.2652 24 25C24 24.7348 24.1054 24.4804 24.2929 24.2929C24.4804 24.1054 24.7348 24 25 24Z" fill="#F03E3D"/>
<path d="M35 14H32V36H35C35.2652 36 35.5196 35.8946 35.7071 35.7071C35.8946 35.5196 36 35.2652 36 35V15C36 14.7348 35.8946 14.4804 35.7071 14.2929C35.5196 14.1054 35.2652 14 35 14Z" fill="#F03E3D"/>
</svg>
