<svg width="31" height="30" viewBox="0 0 31 30" fill="none" xmlns="http://www.w3.org/2000/svg">
<path fill-rule="evenodd" clip-rule="evenodd" d="M14.0971 3.62348C15.4567 2.26384 17.3008 1.5 19.2236 1.5H22.9736C23.5259 1.5 23.9736 1.94772 23.9736 2.5V7.5C23.9736 8.05228 23.5259 8.5 22.9736 8.5H19.2236C19.1573 8.5 19.0937 8.52634 19.0469 8.57322C19 8.62011 18.9736 8.6837 18.9736 8.75V11.5H22.9736C23.2816 11.5 23.5723 11.6419 23.7618 11.8846C23.9513 12.1273 24.0185 12.4438 23.9438 12.7425L22.6938 17.7425C22.5825 18.1877 22.1825 18.5 21.7236 18.5H18.9736V27.5C18.9736 28.0523 18.5259 28.5 17.9736 28.5H12.9736C12.4213 28.5 11.9736 28.0523 11.9736 27.5V18.5H9.22363C8.67135 18.5 8.22363 18.0523 8.22363 17.5V12.5C8.22363 11.9477 8.67135 11.5 9.22363 11.5H11.9736V8.75C11.9736 6.82718 12.7375 4.98311 14.0971 3.62348ZM19.2236 3.5C17.8312 3.5 16.4959 4.05312 15.5113 5.03769C14.5268 6.02226 13.9736 7.35761 13.9736 8.75V12.5C13.9736 13.0523 13.5259 13.5 12.9736 13.5H10.2236V16.5H12.9736C13.5259 16.5 13.9736 16.9477 13.9736 17.5V26.5H16.9736V17.5C16.9736 16.9477 17.4213 16.5 17.9736 16.5H20.9429L21.6929 13.5H17.9736C17.4213 13.5 16.9736 13.0523 16.9736 12.5V8.75C16.9736 8.15326 17.2107 7.58097 17.6326 7.15901C18.0546 6.73705 18.6269 6.5 19.2236 6.5H21.9736V3.5H19.2236Z" fill="#02897A"/>
</svg>
