<svg width="30" height="26" viewBox="0 0 30 26" fill="none" xmlns="http://www.w3.org/2000/svg">
<path fill-rule="evenodd" clip-rule="evenodd" d="M18.1934 1.18388C19.4565 0.701754 20.8373 0.619202 22.1489 0.947384C23.2402 1.22044 24.2398 1.76688 25.0559 2.53037C26.1444 2.14514 27.1759 1.61206 28.121 0.945407L28.6974 1.76257L29.669 1.99919C29.2419 3.75281 28.3769 5.3663 27.1586 6.69035C27.1836 6.9207 27.1966 7.15232 27.1974 7.38426L27.1974 7.38757C27.1974 14.925 23.573 20.4313 18.386 23.1922C13.2233 25.9401 6.61324 25.9153 0.711726 22.6367C0.306915 22.4118 0.109469 21.9384 0.234518 21.4925C0.359566 21.0467 0.774392 20.745 1.23711 20.7634C3.54285 20.8551 5.82365 20.3562 7.86777 19.3273C5.81011 18.1384 4.36265 16.7009 3.37989 15.1492C2.15361 13.2129 1.6888 11.1592 1.60465 9.30798C1.5207 7.46111 1.81416 5.79522 2.12375 4.59812C2.27915 3.99725 2.44026 3.50818 2.56407 3.16573C2.62603 2.99435 2.67882 2.85922 2.71713 2.76466C2.73629 2.71737 2.75184 2.68019 2.76313 2.65365L2.77678 2.62187L2.78106 2.61208L2.78254 2.60874L2.7831 2.60745C2.78334 2.60692 2.78356 2.60643 3.69737 3.01257L4.51573 2.43786C5.68385 4.1012 7.2452 5.44983 9.06072 6.36364C10.5855 7.13111 12.2498 7.57187 13.9474 7.66215V7.43151C13.9307 6.08201 14.3281 4.75977 15.0862 3.64306C15.8456 2.52442 16.9302 1.666 18.1934 1.18388ZM4.06921 5.06365C4.06615 5.07534 4.0631 5.08709 4.06005 5.09889C3.7837 6.16742 3.53029 7.62653 3.60259 9.21716C3.67469 10.8034 4.06926 12.4997 5.06953 14.0791C6.06578 15.6521 7.70091 17.1698 10.3535 18.3488C10.6853 18.4962 10.9111 18.812 10.9434 19.1736C10.9757 19.5353 10.8094 19.886 10.509 20.09C8.88548 21.192 7.07872 21.9698 5.18758 22.3951C9.50016 23.7391 13.8939 23.3175 17.4463 21.4267C21.9464 19.0315 25.1968 14.2259 25.1974 7.38921C25.1963 7.10349 25.1688 6.81847 25.1152 6.53782C25.0525 6.20996 25.1575 5.87245 25.3952 5.63806C25.8836 5.15641 26.3106 4.62074 26.6692 4.04349C26.1458 4.27078 25.6087 4.46758 25.0607 4.6326C24.6841 4.74601 24.2759 4.6281 24.0178 4.33131C23.3994 3.62027 22.5776 3.1163 21.6634 2.88757C20.7493 2.65884 19.7869 2.71637 18.9066 3.0524C18.0262 3.38842 17.2702 3.98672 16.741 4.76637C16.2117 5.54603 15.9346 6.46942 15.9473 7.41166L15.9475 7.42507H15.9474V8.67507C15.9474 9.21726 15.5153 9.66068 14.9733 9.67473C12.6117 9.73597 10.2717 9.21221 8.16154 8.15011C6.61836 7.37338 5.23317 6.32635 4.06921 5.06365Z" fill="#02897A"/>
</svg>
