<svg width="150" height="150" viewBox="0 0 150 150" fill="none" xmlns="http://www.w3.org/2000/svg">
<path d="M150 75C150 33.5786 116.421 0 75 0C33.5786 0 0 33.5786 0 75C0 116.421 33.5786 150 75 150C116.421 150 150 116.421 150 75Z" fill="#F2F6FF"/>
<path d="M76.14 47.3401L55.685 53.19C48.231 55.32 45.139 61.03 47.136 68.99L52.612 90.7901C54.609 98.7401 59.9641 102.04 67.4181 99.9099L87.873 94.0601C95.327 91.9301 98.399 86.22 96.402 78.27L90.927 56.47C88.93 48.51 83.594 45.2101 76.14 47.3401Z" fill="url(#paint0_linear_2:308)"/>
<g opacity="0.5" filter="url(#filter0_f_2:308)">
<path opacity="0.5" d="M86.219 75.9098L82.505 60.8998C81.158 55.4498 77.785 53.0099 73.351 54.2599L58.334 58.4899C53.827 59.7599 52.082 63.64 53.43 69.09L57.144 84.1C58.513 89.64 61.805 91.9999 66.312 90.7299L81.329 86.4999C85.763 85.2599 87.589 81.4498 86.219 75.9098Z" fill="#11B5E4"/>
</g>
<mask id="mask0_2:308" style="mask-type:alpha" maskUnits="userSpaceOnUse" x="59" y="56" width="49" height="52">
<path d="M107.66 56.6299H59.66V107.63H107.66V56.6299Z" fill="white"/>
<path d="M93.923 57.6299H72.748C65.032 57.6299 60.66 62.29 60.66 70.52V93.0901C60.66 101.33 65.032 105.99 72.748 105.99H93.923C101.639 105.99 105.991 101.33 105.991 93.0901V70.52C105.991 62.29 101.639 57.6299 93.923 57.6299Z" fill="black"/>
</mask>
<g mask="url(#mask0_2:308)">
<path d="M93.923 57.6299H72.748C65.032 57.6299 60.66 62.29 60.66 70.52V93.0901C60.66 101.33 65.032 105.99 72.748 105.99H93.923C101.639 105.99 105.991 101.33 105.991 93.0901V70.52C105.991 62.29 101.639 57.6299 93.923 57.6299Z" fill="#00ACDD"/>
<path d="M93.923 58.6299C94.475 58.6299 94.923 58.1799 94.923 57.6299C94.923 57.0699 94.475 56.6299 93.923 56.6299V58.6299ZM93.923 56.6299C93.371 56.6299 92.923 57.0699 92.923 57.6299C92.923 58.1799 93.371 58.6299 93.923 58.6299V56.6299ZM93.923 56.6299H72.748V58.6299H93.923V56.6299ZM72.748 56.6299C68.686 56.6299 65.372 57.86 63.081 60.3C60.799 62.74 59.66 66.24 59.66 70.52H61.66C61.66 66.58 62.707 63.6299 64.54 61.6699C66.365 59.7199 69.095 58.6299 72.748 58.6299V56.6299ZM59.66 70.52V93.0901H61.66V70.52H59.66ZM59.66 93.0901C59.66 97.3801 60.799 100.88 63.081 103.31C65.372 105.76 68.686 106.99 72.748 106.99V104.99C69.095 104.99 66.365 103.89 64.54 101.95C62.707 99.99 61.66 97.0401 61.66 93.0901H59.66ZM72.748 106.99H93.923V104.99H72.748V106.99ZM93.923 106.99C97.986 106.99 101.295 105.76 103.581 103.31C105.858 100.88 106.991 97.3801 106.991 93.0901H104.991C104.991 97.0401 103.949 99.99 102.12 101.95C100.301 103.89 97.577 104.99 93.923 104.99V106.99ZM106.991 93.0901V70.52H104.991V93.0901H106.991ZM106.991 70.52C106.991 66.24 105.858 62.74 103.581 60.3C101.295 57.86 97.986 56.6299 93.923 56.6299V58.6299C97.577 58.6299 100.301 59.7199 102.12 61.6699C103.949 63.6299 104.991 66.57 104.991 70.52H106.991Z" fill="url(#paint1_linear_2:308)"/>
</g>
<g filter="url(#filter1_d_2:308)">
<mask id="mask1_2:308" style="mask-type:alpha" maskUnits="userSpaceOnUse" x="70" y="67" width="26" height="30">
<path fill-rule="evenodd" clip-rule="evenodd" d="M83.405 67.51C82.377 67.51 81.531 68.42 81.531 69.54V94.0801C81.531 95.1801 82.377 96.0801 83.405 96.0801C84.452 96.0801 85.299 95.1801 85.299 94.0801V69.54C85.299 68.42 84.452 67.51 83.405 67.51ZM72.828 75.45C71.8 75.45 70.954 76.35 70.954 77.47V94.0801C70.954 95.1801 71.8 96.0801 72.828 96.0801C73.875 96.0801 74.722 95.1801 74.722 94.0801V77.47C74.722 76.35 73.875 75.45 72.828 75.45ZM91.948 86.24C91.948 85.12 92.794 84.22 93.842 84.22C94.869 84.22 95.715 85.12 95.715 86.24V94.0801C95.715 95.1801 94.869 96.0801 93.821 96.0801C92.794 96.0801 91.948 95.1801 91.948 94.0801V86.24Z" fill="white"/>
</mask>
<g mask="url(#mask1_2:308)">
<path fill-rule="evenodd" clip-rule="evenodd" d="M83.405 67.51C82.377 67.51 81.531 68.42 81.531 69.54V94.0801C81.531 95.1801 82.377 96.0801 83.405 96.0801C84.452 96.0801 85.299 95.1801 85.299 94.0801V69.54C85.299 68.42 84.452 67.51 83.405 67.51ZM72.828 75.45C71.8 75.45 70.954 76.35 70.954 77.47V94.0801C70.954 95.1801 71.8 96.0801 72.828 96.0801C73.875 96.0801 74.722 95.1801 74.722 94.0801V77.47C74.722 76.35 73.875 75.45 72.828 75.45ZM91.948 86.24C91.948 85.12 92.794 84.22 93.842 84.22C94.869 84.22 95.715 85.12 95.715 86.24V94.0801C95.715 95.1801 94.869 96.0801 93.821 96.0801C92.794 96.0801 91.948 95.1801 91.948 94.0801V86.24Z" fill="url(#paint2_linear_2:308)"/>
<path d="M81.931 69.54C81.931 68.61 82.625 67.9099 83.405 67.9099V67.1101C82.13 67.1101 81.131 68.22 81.131 69.54H81.931ZM81.931 94.0801V69.54H81.131V94.0801H81.931ZM83.405 95.6799C82.622 95.6799 81.931 94.9801 81.931 94.0801H81.131C81.131 95.3801 82.132 96.48 83.405 96.48V95.6799ZM84.899 94.0801C84.899 94.9801 84.21 95.6799 83.405 95.6799V96.48C84.695 96.48 85.699 95.3801 85.699 94.0801H84.899ZM84.899 69.54V94.0801H85.699V69.54H84.899ZM83.405 67.9099C84.207 67.9099 84.899 68.61 84.899 69.54H85.699C85.699 68.22 84.697 67.1101 83.405 67.1101V67.9099ZM71.354 77.47C71.354 76.54 72.048 75.8501 72.828 75.8501V75.05C71.553 75.05 70.554 76.16 70.554 77.47H71.354ZM71.354 94.0801V77.47H70.554V94.0801H71.354ZM72.828 95.6799C72.045 95.6799 71.354 94.9801 71.354 94.0801H70.554C70.554 95.3801 71.555 96.48 72.828 96.48V95.6799ZM74.322 94.0801C74.322 94.9801 73.633 95.6799 72.828 95.6799V96.48C74.118 96.48 75.122 95.3801 75.122 94.0801H74.322ZM74.322 77.47V94.0801H75.122V77.47H74.322ZM72.828 75.8501C73.631 75.8501 74.322 76.55 74.322 77.47H75.122C75.122 76.15 74.12 75.05 72.828 75.05V75.8501ZM93.842 83.8201C92.549 83.8201 91.548 84.92 91.548 86.24H92.348C92.348 85.32 93.039 84.6201 93.842 84.6201V83.8201ZM96.115 86.24C96.115 84.93 95.117 83.8201 93.842 83.8201V84.6201C94.621 84.6201 95.315 85.31 95.315 86.24H96.115ZM96.115 94.0801V86.24H95.315V94.0801H96.115ZM93.821 96.48C95.111 96.48 96.115 95.3801 96.115 94.0801H95.315C95.315 94.9801 94.627 95.6799 93.821 95.6799V96.48ZM91.548 94.0801C91.548 95.3801 92.549 96.48 93.821 96.48V95.6799C93.039 95.6799 92.348 94.9801 92.348 94.0801H91.548ZM91.548 86.24V94.0801H92.348V86.24H91.548Z" fill="url(#paint3_linear_2:308)"/>
</g>
</g>
<defs>
<filter id="filter0_f_2:308" x="39.9859" y="40.939" width="59.6795" height="63.1266" filterUnits="userSpaceOnUse" color-interpolation-filters="sRGB">
<feFlood flood-opacity="0" result="BackgroundImageFix"/>
<feBlend mode="normal" in="SourceGraphic" in2="BackgroundImageFix" result="shape"/>
<feGaussianBlur stdDeviation="6.5" result="effect1_foregroundBlur_2:308"/>
</filter>
<filter id="filter1_d_2:308" x="65.954" y="62.51" width="44.761" height="48.5701" filterUnits="userSpaceOnUse" color-interpolation-filters="sRGB">
<feFlood flood-opacity="0" result="BackgroundImageFix"/>
<feColorMatrix in="SourceAlpha" type="matrix" values="0 0 0 0 0 0 0 0 0 0 0 0 0 0 0 0 0 0 127 0" result="hardAlpha"/>
<feOffset dx="5" dy="5"/>
<feGaussianBlur stdDeviation="5"/>
<feColorMatrix type="matrix" values="0 0 0 0 1 0 0 0 0 0.447059 0 0 0 0 0.368627 0 0 0 0.5 0"/>
<feBlend mode="normal" in2="BackgroundImageFix" result="effect1_dropShadow_2:308"/>
<feBlend mode="normal" in="SourceGraphic" in2="effect1_dropShadow_2:308" result="shape"/>
</filter>
<linearGradient id="paint0_linear_2:308" x1="75.779" y1="75.83" x2="40.4731" y2="104.53" gradientUnits="userSpaceOnUse">
<stop stop-color="#11B5E4"/>
<stop offset="1" stop-color="#035B81"/>
</linearGradient>
<linearGradient id="paint1_linear_2:308" x1="67.876" y1="63.2599" x2="99.0891" y2="99.4899" gradientUnits="userSpaceOnUse">
<stop stop-color="white" stop-opacity="0.25"/>
<stop offset="1" stop-color="white" stop-opacity="0"/>
</linearGradient>
<linearGradient id="paint2_linear_2:308" x1="64.545" y1="88.7201" x2="77.408" y2="113.49" gradientUnits="userSpaceOnUse">
<stop stop-color="white"/>
<stop offset="1" stop-color="white" stop-opacity="0.2"/>
</linearGradient>
<linearGradient id="paint3_linear_2:308" x1="74.896" y1="70.8401" x2="93.4909" y2="90.8001" gradientUnits="userSpaceOnUse">
<stop stop-color="white" stop-opacity="0.25"/>
<stop offset="1" stop-color="white" stop-opacity="0"/>
</linearGradient>
</defs>
</svg>
