<svg width="14218" height="8707" viewBox="0 0 14218 8707" fill="none" xmlns="http://www.w3.org/2000/svg">
<path d="M2082.13 7871.33C4858.32 8985.56 9359.75 8985.56 12135.8 7871.33C14912.1 6756.91 14912.1 4950.31 12135.8 3835.71C9359.75 2721.3 4859.58 2721.48 2082.13 3835.71C-695.321 4950.13 -692.766 6756.91 2082.13 7871.33Z" fill="#F5F5F5"/>
<path d="M1308.27 6043.95L405.823 5643.6V4156.43L1308.27 4556.96V6043.95Z" fill="#E0E0E0"/>
<path d="M1308.26 4556.96L2597.64 3985.04V5472.03L1308.26 6043.95V4556.96Z" fill="#EBEBEB"/>
<path d="M2597.65 3985.02L1308.27 4556.94L405.823 4156.42L1695.2 3584.5L2597.65 3985.02Z" fill="#F5F5F5"/>
<path d="M1437.46 4613.97L2468.78 4156.43L2492.56 4166.91V4717.87L1460.96 5175.4L1437.15 5164.92L1437.46 4613.97Z" fill="#E0E0E0"/>
<path d="M1460.94 4624.63L2492.55 4166.91V4717.87L1460.94 5175.4V4624.63Z" fill="#F5F5F5"/>
<path d="M1865.33 4538.56L2040.88 4460.77C2063.4 4450.66 2081.81 4455.26 2081.81 4471.07C2080.17 4480.82 2075.62 4490.01 2068.53 4498.1C2061.42 4506.38 2051.94 4513 2040.88 4517.96L1865.33 4595.75C1842.47 4605.87 1824.06 4601.27 1824.06 4585.46C1825.72 4575.71 1830.31 4566.33 1837.47 4558.24C1844.63 4550.15 1854.17 4543.34 1865.33 4538.56Z" fill="#E0E0E0"/>
<path d="M1413.64 5310.92L2444.96 4853.38V5404.34L2468.77 5414.82L1437.13 5872.36L1413.64 5861.87V5310.92Z" fill="#E0E0E0"/>
<path d="M1437.15 5321.41L2468.78 4863.88V5414.83L1437.15 5872.37V5321.41Z" fill="#F5F5F5"/>
<path d="M1841.53 5235.74L2018.65 5158.13C2041.52 5147.83 2059.93 5152.43 2059.93 5168.43C2058.27 5178.18 2053.68 5187.37 2046.52 5195.46C2039.36 5203.74 2029.82 5210.36 2018.65 5215.14L1843.11 5292.93C1820.28 5303.23 1801.87 5298.63 1801.87 5282.81C1803.29 5273.07 1807.61 5263.87 1814.48 5255.6C1821.38 5247.5 1830.63 5240.7 1841.53 5235.74Z" fill="#E0E0E0"/>
<path d="M1308.27 4471.09L405.823 4070.56V2583.75L1308.27 2983.91V4471.09Z" fill="#E0E0E0"/>
<path d="M1308.26 2983.91L2597.64 2411.99V3899.17L1308.26 4471.09V2983.91Z" fill="#EBEBEB"/>
<path d="M2597.65 2411.98L1308.27 2983.9L405.823 2583.74L1695.2 2011.82L2597.65 2411.98Z" fill="#F5F5F5"/>
<path d="M1437.15 3041.29L2468.78 2583.75L2492.56 2594.23V3145.01L1460.96 3602.54L1437.15 3591.88V3041.29Z" fill="#E0E0E0"/>
<path d="M1865.33 2965.48L2040.54 2887.69C2063.4 2877.76 2081.81 2882.36 2081.81 2898.17C2080.12 2907.92 2075.51 2917.3 2068.35 2925.39C2061.18 2933.48 2051.68 2940.28 2040.54 2945.06L1865.33 3022.85C1842.47 3032.78 1824.06 3028.55 1824.06 3012.55C1825.75 3002.81 1830.33 2993.61 1837.49 2985.34C1844.66 2977.25 1854.19 2970.44 1865.33 2965.48Z" fill="#E0E0E0"/>
<path d="M1413.64 3738.24L2444.96 3280.7V3831.29L2468.77 3841.77L1437.13 4299.31L1413.64 4288.83V3738.24Z" fill="#E0E0E0"/>
<path d="M1437.15 3748.73L2468.78 3291.19V3841.78L1437.15 4299.31V3748.73Z" fill="#F5F5F5"/>
<path d="M1841.54 3662.68L2018.66 3584.89C2041.21 3574.78 2059.94 3579.37 2059.94 3595.37C2058.15 3604.93 2053.51 3614.31 2046.35 3622.41C2039.18 3630.5 2029.73 3637.3 2018.66 3642.08L1841.54 3719.14C1818.68 3729.25 1800.27 3724.65 1800.27 3709.02C1802.09 3699.28 1806.75 3690.08 1813.91 3682.17C1821.05 3674.08 1830.5 3667.46 1841.54 3662.68Z" fill="#E0E0E0"/>
<path d="M1437.15 3041.29L2468.78 2583.75V3134.34L1437.15 3591.88V3041.29Z" fill="#E0E0E0"/>
<path d="M2984.57 2855.92L2419.88 2605.45V3090.76L2984.57 3340.85V2855.92Z" fill="#E0E0E0"/>
<path d="M1824.06 3670.38V2983.89L2045.3 2885.32L2081.81 2926.88L2726.51 2640.74V3270.03L1824.06 3670.38Z" fill="#EBEBEB"/>
<path d="M1824.06 3670.41L1888.51 3069.8L2790.93 2669.46L2726.51 3270.07L1824.06 3670.41Z" fill="#F5F5F5"/>
<path d="M1952.93 3313.44L1460.94 3095.16V3580.46L1952.93 3798.38V3313.44Z" fill="#EBEBEB"/>
<path d="M1952.95 3269.84L2984.58 2812.49V3363.08L1952.95 3820.61V3269.84Z" fill="#F5F5F5"/>
<path d="M2357.34 3183.79L2532.57 3106C2555.44 3096.07 2573.85 3100.67 2573.85 3116.48C2572.13 3126.23 2567.5 3135.61 2560.33 3143.7C2553.2 3151.79 2543.69 3158.6 2532.57 3163.38L2357.34 3241.17C2334.51 3251.1 2316.1 3246.5 2316.1 3230.87C2317.76 3221.12 2322.36 3211.74 2329.5 3203.65C2336.67 3195.56 2346.2 3188.75 2357.34 3183.79Z" fill="#E0E0E0"/>
<path d="M1952.95 3269.85L1918.69 3254.77V3805.54L1952.95 3820.62V3269.85Z" fill="#E0E0E0"/>
<path d="M1918.69 3254.76L2949.98 2797.04L2984.59 2812.49L1952.95 3269.84L1918.69 3254.76Z" fill="#EBEBEB"/>
<path d="M11969.9 5143.01L11067.2 4742.48V3255.49L11969.9 3655.65V5143.01Z" fill="#E0E0E0"/>
<path d="M11969.8 3655.86L13259.4 3083.94V4571.11L11969.8 5143.03V3655.86Z" fill="#EBEBEB"/>
<path d="M13259.4 3083.93L11969.9 3655.84L11067.2 3255.5L12356.8 2683.4L13259.4 3083.93Z" fill="#F5F5F5"/>
<path d="M12098.6 3713.03L13130.3 3255.49L13154.3 3265.98L13153.8 3816.75L12122.6 4274.28L12098.6 4263.8V3713.03Z" fill="#E0E0E0"/>
<path d="M12122.6 3723.52L13154.3 3265.99L13153.8 3816.76L12122.6 4274.3V3723.52Z" fill="#F5F5F5"/>
<path d="M12526.9 3637.48L12702.1 3559.7C12725 3549.77 12743.4 3554.36 12743.4 3569.99C12741.8 3579.74 12737.1 3589.12 12730 3597.21C12722.9 3605.3 12713.4 3612.11 12702.1 3617.07L12526.9 3694.86C12504 3704.79 12485.8 3700.19 12485.8 3684.56C12487.4 3674.81 12491.9 3665.44 12499 3657.34C12506.4 3649.07 12515.8 3642.45 12526.9 3637.48Z" fill="#E0E0E0"/>
<path d="M12074.9 4410L13106.6 3952.29V4503.24L13130.3 4513.72L12098.6 4971.26L12074.9 4960.77V4410Z" fill="#E0E0E0"/>
<path d="M12098.6 4420.52L13130.3 3962.98V4513.76L12098.6 4971.29V4420.52Z" fill="#F5F5F5"/>
<path d="M12503.2 4334.43L12678.6 4256.64C12701.3 4246.71 12719.7 4251.3 12719.7 4266.94C12717.9 4276.68 12713.4 4285.88 12706.3 4294.15C12699.2 4302.24 12689.7 4309.05 12678.6 4314.01L12503.2 4391.8C12480.3 4401.73 12461.9 4397.13 12461.9 4381.32C12463.7 4371.57 12468.2 4362.38 12475.3 4354.1C12482.7 4346.01 12492.1 4339.39 12503.2 4334.43Z" fill="#E0E0E0"/>
<path d="M3383.58 6697.17C3383.58 6697.17 3387.08 6310.44 3069.65 6020.43C2788.73 5763.71 2639.24 5600.78 2727.79 5525.56C2816.33 5450.53 3006.81 5432.51 3263.61 5640.31C3520.4 5848.12 3540.39 6423.53 3504.84 6553.92L3383.58 6697.17Z" fill="#02897A"/>
<path opacity="0.2" d="M3383.58 6697.17C3383.58 6697.17 3387.08 6310.44 3069.65 6020.43C2788.73 5763.71 2639.24 5600.78 2727.79 5525.56C2816.33 5450.53 3006.81 5432.51 3263.61 5640.31C3520.4 5848.12 3540.39 6423.53 3504.84 6553.92L3383.58 6697.17Z" fill="black"/>
<path d="M3436.9 6281.34C3433.29 6281.34 3429.76 6280.42 3426.94 6278.77C3424.12 6276.93 3422.15 6274.54 3421.33 6271.97C3310.24 5872.73 3025.21 5651.87 2864.89 5555.87C2861.57 5553.85 2859.41 5550.91 2858.88 5547.78C2858.36 5544.47 2859.49 5541.35 2862.04 5538.77C2864.68 5536.2 2868.5 5534.54 2872.74 5534.17C2876.95 5533.81 2881.19 5534.54 2884.59 5536.56C3048.04 5634.21 3339.13 5860.04 3452.43 6266.82C3452.91 6268.29 3452.96 6269.94 3452.62 6271.41C3452.25 6273.07 3451.49 6274.54 3450.35 6275.83C3449.25 6277.3 3447.77 6278.4 3446.06 6279.32C3444.35 6280.24 3442.43 6280.79 3440.37 6281.16L3436.9 6281.34Z" fill="white"/>
<path d="M3371.5 6840.99L3242.31 6898.18C3228.54 6869.31 3205.28 6843.56 3174.84 6823.52C3144.36 6803.47 3107.7 6789.86 3068.38 6783.8C2927.13 6759.52 2780.48 6763.57 2681.42 6669.41C2582.39 6575.26 2703.02 6472.83 2681.42 6403.68C2659.85 6334.35 2645.89 6314.31 2468.77 6245.16C2291.65 6175.83 2221.8 6060.9 2355.12 5983.11C2488.44 5905.32 2704.28 5962.51 2835.08 6032.02C2951.25 6092.89 3061.72 6109.08 3191.54 6121.4C3321.36 6133.9 3532.77 6189.26 3500.37 6420.97C3479.17 6564.41 3435.92 6705.27 3371.5 6840.99Z" fill="#02897A"/>
<path d="M2875.69 6536.45C2872.32 6536.45 2869.03 6535.71 2866.29 6534.24C2863.55 6532.58 2861.52 6530.38 2860.47 6527.99C2859.25 6524.86 2859.68 6521.55 2861.62 6518.61C2863.6 6515.85 2866.92 6513.64 2870.92 6512.72C2882.35 6509.97 3156.61 6443.21 3273.1 6514.75C3276 6516.95 3277.76 6519.71 3278.05 6522.84C3278.32 6525.96 3277.11 6528.91 3274.63 6531.3C3272.15 6533.69 3268.6 6535.34 3264.67 6535.71C3260.75 6536.26 3256.75 6535.53 3253.43 6533.87C3150.58 6470.43 2883.3 6535.34 2880.46 6536.08L2875.69 6536.45Z" fill="white"/>
<path d="M3385.78 6822.41C3381.94 6822.41 3378.2 6821.31 3375.33 6819.29C3372.46 6817.27 3370.64 6814.51 3370.24 6811.56C3299.45 6297.94 2494.16 6054.46 2486.21 6051.89C2484.26 6051.34 2482.44 6050.6 2480.91 6049.5C2479.38 6048.21 2478.15 6046.92 2477.3 6045.45C2476.43 6043.98 2475.99 6042.51 2475.93 6040.85C2475.88 6039.2 2476.25 6037.54 2477.01 6036.07C2478.57 6033.13 2481.54 6030.74 2485.34 6029.45C2489.1 6028.16 2493.4 6027.98 2497.32 6029.08C2505.91 6031.66 3328.97 6280.47 3401.66 6809.36C3402.11 6812.67 3400.9 6815.79 3398.27 6818.37C3395.66 6820.94 3391.87 6822.41 3387.71 6822.78L3385.78 6822.41Z" fill="white"/>
<path d="M11281.1 6503.51C11284.5 6495.05 11420.7 5956.6 11281.1 5574.65C11154.2 5224.51 10988.5 5095.23 10752.2 5066.72C10516 5038.04 10413.5 5168.79 10538.9 5345.88C10664.3 5522.97 10966.1 5757.81 11040.1 6153.37C11072 6316.3 11095.9 6457.72 11095.9 6457.72L11281.1 6503.51Z" fill="#02897A"/>
<path opacity="0.2" d="M11281.1 6503.51C11284.5 6495.05 11420.7 5956.6 11281.1 5574.65C11154.2 5224.51 10988.5 5095.23 10752.2 5066.72C10516 5038.04 10413.5 5168.79 10538.9 5345.88C10664.3 5522.97 10966.1 5757.81 11040.1 6153.37C11072 6316.3 11095.9 6457.72 11095.9 6457.72L11281.1 6503.51Z" fill="black"/>
<path d="M11201.3 6194.36C11199.2 6194.18 11197.4 6193.81 11195.5 6193.08C11193.4 6192.34 11191.8 6191.42 11190.5 6190.32C11188.9 6189.03 11187.9 6187.74 11187.3 6186.09C11186.6 6184.62 11186.3 6182.96 11186.6 6181.49C11218.2 5745.28 11032.7 5356.16 10700.6 5165.09C10697.2 5163.25 10694.8 5160.31 10694.3 5157.18C10693.8 5153.87 10694.8 5150.74 10697.2 5148.17C10699.8 5145.6 10703.8 5143.94 10707.7 5143.39C10711.9 5143.02 10716.2 5143.76 10719.6 5145.6C11060.1 5340.71 11251.4 5738.85 11217.9 6182.96C11217.6 6186.09 11215.8 6189.03 11212.6 6191.24C11209.7 6193.26 11205.5 6194.55 11201.3 6194.36Z" fill="white"/>
<path d="M11646.4 6784.17C11628.2 6683.95 11703.3 6533.7 11881.3 6498.03C12059.4 6462.35 12138.7 6383.83 12074.7 6297.95C12010.4 6212.25 12025.4 6133.36 12186.9 6097.87C12348.6 6062.19 12490 6000.22 12397 5869.1C12329.6 5774.21 12314.6 5712.79 12480.3 5525.95C12617.8 5370.74 12505.3 5279.89 12333.3 5297C12161.3 5313.91 12054.9 5471.51 11947.5 5497.81C11839.7 5524.29 11815 5383.8 11673 5446.69C11531.3 5509.58 11539.7 5670.86 11535.3 5783.22C11530.8 5895.58 11521.3 5920.96 11393 5907.35C11264.8 5893.74 11139.1 5909.74 11142 6148.07C11144.1 6352.38 11286.1 6605.61 11286.1 6605.61L11646.4 6784.17Z" fill="#02897A"/>
<path d="M11421.5 6631.68H11419.9C11415.4 6631.31 11411.7 6629.65 11409.1 6627.08C11406.2 6624.51 11405.1 6621.2 11405.4 6617.89C11495 6003.67 12181.3 5485.45 12360.2 5380.26C12363.6 5378.24 12367.8 5377.5 12372 5377.87C12376.2 5378.24 12380.2 5380.08 12382.6 5382.65C12385.2 5385.22 12386.2 5388.35 12385.7 5391.66C12385.2 5394.97 12383.1 5397.73 12379.7 5399.75C12202.9 5503.47 11525.5 6014.89 11437.3 6620.64C11436.8 6623.59 11434.9 6626.35 11432 6628.37C11429.1 6630.39 11425.2 6631.68 11421.5 6631.68Z" fill="white"/>
<path d="M11734.4 5974.79C11731.2 5974.79 11728.1 5974.06 11725.4 5972.77C11722.8 5971.3 11720.7 5969.28 11719.4 5967.07C11718.1 5963.94 11718.3 5960.63 11720.2 5957.69C11721.7 5954.75 11724.9 5952.35 11728.9 5951.25C11984.9 5878.06 12274.8 5912.63 12287.2 5914.11C12291.4 5914.66 12295.1 5916.49 12297.5 5919.07C12299.9 5921.64 12300.9 5924.77 12300.4 5928.08C12299.6 5931.21 12297.2 5933.97 12293.8 5935.8C12290.6 5937.83 12286.4 5938.56 12282.2 5938.2C12279.3 5938.2 11988 5903.07 11740.2 5974.05C11738.3 5974.61 11736.2 5974.79 11734.4 5974.79Z" fill="white"/>
<path d="M11506.6 6344.08C11504.2 6344.08 11502.1 6343.71 11500 6342.97C11497.9 6342.24 11496 6341.32 11494.7 6340.03C11388.3 6244.77 11316.1 6129.84 11285.6 6006.62C11285.1 6004.97 11285.3 6003.31 11285.9 6001.84C11286.4 6000.19 11287.2 5998.72 11288.5 5997.43C11289.5 5996.14 11291.1 5995.04 11293 5994.3C11294.8 5993.39 11296.7 5992.83 11298.8 5992.65C11300.9 5992.46 11303 5992.46 11305.1 5992.83C11307.2 5993.2 11309 5993.94 11310.6 5994.85C11312.5 5995.77 11313.8 5997.06 11314.8 5998.35C11315.9 5999.82 11316.7 6001.29 11316.9 6002.95C11347.2 6121.38 11416.8 6231.72 11518.4 6323.66C11520.5 6325.32 11521.8 6327.53 11522.1 6329.92C11522.6 6332.31 11522.1 6334.7 11520.8 6336.72C11519.7 6338.93 11517.6 6340.77 11515 6342.05C11512.4 6343.34 11509.5 6344.08 11506.6 6344.08Z" fill="white"/>
<path d="M3371.5 3066.29V6841.15L8400.25 4610.48L8399.72 1178.95L4660.88 2837.52L4531.69 2551.56L3371.5 3066.29Z" fill="#22343D"/>
<path d="M3371.5 6841.15L3629.25 3409.44L8657.83 1178.95L8400.25 4610.48L3371.5 6841.15Z" fill="#E0E0E0"/>
<path d="M3371.5 6841.17L3758.12 3466.84L8786.63 1235.99L8400.25 4610.68L3371.5 6841.17Z" fill="#22343D"/>
<path d="M4145.08 3409.44V7184.48L9173.8 4953.81V1522.11L5434.43 3180.68L5305.56 2894.72L4145.08 3409.44Z" fill="#F03E3D"/>
<path d="M4145.08 7184.48L4402.82 3752.6L9431.38 1522.11L9173.8 4953.81L4145.08 7184.48Z" fill="#E0E0E0"/>
<path d="M4145.08 7184.51L4531.69 3810L9560.18 1579.14L9173.8 4953.66L4145.08 7184.51Z" fill="#F03E3D"/>
<path d="M8398.95 8385.73C7496.11 7985.2 6658.77 7549.91 6276.58 7039.23L7438.35 6523.95L8398.95 8385.73Z" fill="#E0E0E0"/>
<path d="M5047.51 3809.96V7584.63L10076.2 5354.14V1922.45L6336.89 3581.19L6208.02 3295.05L5047.51 3809.96Z" fill="#02897A"/>
<path opacity="0.2" d="M5047.51 3809.96V7584.63L10076.2 5354.14V1922.45L6336.89 3581.19L6208.02 3295.05L5047.51 3809.96Z" fill="black"/>
<path d="M6496.24 4925.85C6483.55 4925.85 6481.65 4914.63 6481.65 4908.01V1688.9C6482.65 1676.39 6487.42 1664.26 6495.58 1653.41C6503.72 1642.56 6515.05 1633.36 6528.61 1626.37L10158.1 16.7244C10163.1 14.5176 10168.6 13.0472 10174.7 12.8633C10187.3 12.8633 10189.1 24.0805 10189.1 30.7007V3250C10188.1 3262.51 10183.4 3274.64 10175.2 3285.49C10167 3296.34 10155.7 3305.72 10142.3 3312.71L6512.76 4922.17C6507.73 4924.56 6502.06 4925.85 6496.24 4925.85Z" fill="white"/>
<path d="M10172.6 24.0938C10172.8 25.9328 10172.8 27.7725 10172.6 29.4276V3248.73C10171.5 3259.21 10167.6 3269.14 10160.7 3278.15C10154.1 3287.35 10144.6 3295.07 10133.6 3300.96L6504.17 4910.61L6497.82 4912.81C6497.4 4910.98 6497.4 4909.14 6497.82 4907.48V1688.18C6498.93 1677.88 6502.99 1667.77 6509.73 1658.76C6516.5 1649.74 6525.77 1642.02 6536.86 1636.14L10166.2 26.6687C10168.3 25.5653 10170.5 24.8298 10172.8 24.462L10172.6 24.0938ZM10174.9 0.00222648C10166.2 0.186124 10157.8 2.21007 10150.4 5.70411L6521 1615.17C6505.04 1623.26 6491.77 1634.11 6482.23 1646.8C6472.7 1659.49 6467.17 1673.83 6466.09 1688.36V4907.66C6466.09 4926.61 6478.47 4937.64 6497.82 4937.64C6506.49 4937.46 6514.92 4935.43 6522.26 4931.94L10151.8 3322.47C10167.8 3314.38 10181 3303.53 10190.5 3290.84C10200.2 3278.15 10205.7 3263.99 10206.5 3249.28V29.9775C10206.5 11.0361 10194.2 -0.181671 10174.9 0.00222648Z" fill="#02897A"/>
<path opacity="0.7" d="M10172.6 24.0938C10172.8 25.9328 10172.8 27.7725 10172.6 29.4276V3248.73C10171.5 3259.21 10167.6 3269.14 10160.7 3278.15C10154.1 3287.35 10144.6 3295.07 10133.6 3300.96L6504.17 4910.61L6497.82 4912.81C6497.4 4910.98 6497.4 4909.14 6497.82 4907.48V1688.18C6498.93 1677.88 6502.99 1667.77 6509.73 1658.76C6516.5 1649.74 6525.77 1642.02 6536.86 1636.14L10166.2 26.6687C10168.3 25.5653 10170.5 24.8298 10172.8 24.462L10172.6 24.0938ZM10174.9 0.00222648C10166.2 0.186124 10157.8 2.21007 10150.4 5.70411L6521 1615.17C6505.04 1623.26 6491.77 1634.11 6482.23 1646.8C6472.7 1659.49 6467.17 1673.83 6466.09 1688.36V4907.66C6466.09 4926.61 6478.47 4937.64 6497.82 4937.64C6506.49 4937.46 6514.92 4935.43 6522.26 4931.94L10151.8 3322.47C10167.8 3314.38 10181 3303.53 10190.5 3290.84C10200.2 3278.15 10205.7 3263.99 10206.5 3249.28V29.9775C10206.5 11.0361 10194.2 -0.181671 10174.9 0.00222648Z" fill="white"/>
<path d="M6852.7 1811.02L8142.15 1239.09V2382.94L6852.7 2954.85V1811.02Z" fill="#02897A"/>
<path opacity="0.8" d="M6852.7 1811.02L8142.15 1239.09V2382.94L6852.7 2954.85V1811.02Z" fill="#11B5E4"/>
<path d="M7948.84 1524.33V1868.22L7908.01 1885.51V1780.32C7908.01 1722.39 7846.91 1702.53 7770.79 1736.18L7224.41 1978.93C7148.56 2012.58 7086.95 2086.87 7086.95 2144.99V2249.99L7046.66 2268.56V1925.41L7948.84 1524.33Z" fill="white"/>
<path d="M7700.47 2399.85C7634.62 2429.09 7580.89 2398.38 7580.89 2330.7V1780.3L7414.86 1849.63V2404.45C7414.86 2471.75 7361.21 2550.83 7295.18 2579.33L7175.21 2632.48V2669.08L7819.78 2382.93V2346.7L7700.47 2399.85Z" fill="white"/>
<path d="M8398.95 1182.85C8398.95 1214.48 8436.09 1223.67 8481.39 1203.63L9735.87 646.235C9758 636.672 9777.22 623.064 9791.44 606.881C9805.67 590.514 9814.89 571.941 9818.31 552.448C9818.31 521.002 9781.17 511.623 9735.87 531.852L8482.44 1087.95C8459.79 1097.7 8440.3 1111.31 8425.82 1127.86C8411.33 1144.23 8402.11 1163.17 8398.95 1182.85Z" fill="#455A64"/>
<path d="M8398.95 1524.34C8398.95 1555.97 8436.09 1565.35 8481.39 1544.94L9734.82 989.019C9757.2 979.273 9776.17 965.664 9790.39 949.481C9804.87 933.114 9814.09 914.541 9817.52 895.048C9817.52 863.602 9780.38 854.408 9734.82 874.636L8481.39 1430.55C8459.27 1440.3 8440.3 1453.72 8425.82 1470.09C8411.59 1486.27 8402.38 1504.85 8398.95 1524.34Z" fill="#455A64"/>
<path d="M8398.95 1868.21C8398.95 1899.84 8436.09 1909.04 8481.39 1888.81L9734.82 1332.89C9757.2 1323.14 9776.17 1309.72 9790.39 1293.35C9804.87 1277.17 9814.09 1258.59 9817.52 1239.1C9817.52 1207.47 9780.38 1198.27 9734.82 1218.5L8481.39 1774.42C8459.27 1784.17 8440.3 1797.6 8425.82 1813.96C8411.59 1830.15 8402.38 1848.72 8398.95 1868.21Z" fill="#455A64"/>
<path d="M8398.95 2211.36C8398.95 2243 8436.09 2252.19 8481.39 2231.96L9734.82 1676.04C9757.2 1666.3 9776.17 1652.87 9790.39 1636.5C9804.87 1620.32 9814.09 1601.75 9817.52 1582.26C9817.52 1550.63 9780.38 1541.43 9734.82 1561.66L8481.39 2117.58C8459.27 2127.32 8440.3 2140.75 8425.82 2157.12C8411.59 2173.3 8402.38 2191.87 8398.95 2211.36Z" fill="#455A64"/>
<path d="M6852.7 3240.97C6852.7 3272.6 6889.52 3281.98 6935.24 3261.57L9735.87 2017.87C9757.99 2008.31 9777.22 1994.7 9791.44 1978.52C9805.67 1962.15 9814.88 1943.58 9818.31 1924.27C9818.31 1892.45 9781.17 1883.44 9735.87 1903.49L6935.24 3147.18C6912.96 3156.93 6893.92 3170.35 6879.59 3186.54C6865.26 3202.9 6856.07 3221.48 6852.7 3240.97Z" fill="#455A64"/>
<path d="M6852.7 3584.14C6852.7 3615.77 6889.52 3624.96 6935.24 3604.73L9735.87 2362.51C9757.99 2352.76 9777.22 2339.34 9791.44 2322.97C9805.67 2306.61 9814.88 2288.03 9818.31 2268.54C9818.31 2237.09 9781.17 2227.9 9735.87 2248.12L6935.24 3490.35C6912.96 3500.1 6893.92 3513.52 6879.59 3529.71C6865.26 3546.07 6856.07 3564.65 6852.7 3584.14Z" fill="#455A64"/>
<path d="M6852.7 3927.47C6852.7 3958.92 6889.52 3968.11 6935.24 3947.88L9735.87 2705.66C9757.99 2695.91 9777.22 2682.31 9791.44 2666.12C9805.67 2649.76 9814.88 2631.18 9818.31 2611.69C9818.31 2580.24 9781.17 2571.05 9735.87 2591.28L6935.24 3833.5C6912.93 3843.25 6893.86 3856.67 6879.54 3873.04C6865.21 3889.22 6856.02 3907.98 6852.7 3927.47Z" fill="#455A64"/>
<path d="M5047.51 7584.63L5949.96 4553.45L10978.5 2322.78L10076.2 5354.14L5047.51 7584.63Z" fill="#02897A"/>
<path d="M6277.84 4790.9V7039.22L7438.35 6524.31V4276.17L6277.84 4790.9Z" fill="#02897A"/>
<path opacity="0.2" d="M6277.84 4790.9V7039.22L7438.35 6524.31V4276.17L6277.84 4790.9Z" fill="black"/>
<path d="M8401.05 8370.98C8302.28 8314.34 7350.74 7755.65 6866.99 6956.44C6352.11 6106.83 6352.74 5115.63 6352.74 4742.68V4731.1L9802.5 3200.89C9802.5 3577.33 9802.5 4569.82 10319.5 5422.37C10792.3 6202.83 11707.3 6754.52 11852.4 6838.93L8401.05 8370.98Z" fill="white"/>
<path d="M9786.69 3222.99C9786.69 3615.06 9796.44 4588.61 10305.3 5428.65C10762 6182.08 11630.6 6724.02 11823.9 6838.4L8402.1 8356.29C8268.31 8279.05 7352.64 7729.57 6881.58 6952.42C6367.36 6105.02 6367.36 5115.84 6367.36 4743.45V4738.85L9785.38 3222.62L9786.69 3222.99ZM9816.98 3180.51L6335.62 4725.06C6335.62 5075.93 6326.09 6095.64 6851.42 6962.53C7368.52 7813.42 8398.94 8385.71 8398.94 8385.71L11881.4 6840.98C11881.4 6840.98 10849.7 6268.69 10334.3 5417.8C9808.55 4550.91 9818.3 3531.2 9818.3 3180.14L9816.98 3180.51Z" fill="#02897A"/>
<path opacity="0.7" d="M9786.69 3222.99C9786.69 3615.06 9796.44 4588.61 10305.3 5428.65C10762 6182.08 11630.6 6724.02 11823.9 6838.4L8402.1 8356.29C8268.31 8279.05 7352.64 7729.57 6881.58 6952.42C6367.36 6105.02 6367.36 5115.84 6367.36 4743.45V4738.85L9785.38 3222.62L9786.69 3222.99ZM9816.98 3180.51L6335.62 4725.06C6335.62 5075.93 6326.09 6095.64 6851.42 6962.53C7368.52 7813.42 8398.94 8385.71 8398.94 8385.71L11881.4 6840.98C11881.4 6840.98 10849.7 6268.69 10334.3 5417.8C9808.55 4550.91 9818.3 3531.2 9818.3 3180.14L9816.98 3180.51Z" fill="white"/>
<path d="M9424.55 3698.52L8323.62 4186.21C8301.49 4195.59 8282.79 4208.83 8268.83 4224.83C8254.87 4241.01 8246.18 4259.41 8243.55 4278.71C8245.13 4309.61 8283.58 4318.44 8329.15 4298.21L9430.08 3810.33C9451.94 3801.14 9470.64 3788.08 9484.33 3772.26C9498.29 3756.26 9506.98 3738.24 9509.88 3719.12C9508.04 3686.93 9470.11 3678.29 9424.55 3698.52Z" fill="#455A64"/>
<path d="M9448 4031.4L8347.07 4519.1C8325.47 4528.11 8306.77 4541.17 8293.34 4557.16C8280.17 4573.16 8272 4591.37 8270.42 4610.31C8273.85 4640.29 8313.88 4648.38 8359.18 4628.15L9460.38 4140.45C9481.97 4131.44 9500.41 4118.39 9513.58 4102.39C9527.01 4086.57 9534.65 4068.37 9536.23 4049.42C9533.07 4019.26 9493.56 4011.91 9448 4031.4Z" fill="#455A64"/>
<path d="M9491.99 4355.03L8391.06 4842.73C8345.49 4862.96 8312.57 4903.23 8317.84 4932.29C8323.37 4961.34 8364.98 4968.88 8410.55 4948.65L9511.74 4460.77C9557.04 4440.55 9589.44 4400.64 9583.91 4371.58C9578.11 4342.53 9537.55 4334.81 9491.99 4355.03Z" fill="#455A64"/>
<path d="M9558.08 4668.99L8456.89 5156.68C8411.59 5176.91 8380.24 5216.45 8387.88 5244.77C8395.26 5272.91 8438.45 5279.34 8482.96 5259.12L9583.89 4771.42C9629.46 4751.01 9660.01 4711.84 9652.37 4683.52C9644.73 4655.2 9604.96 4648.58 9558.08 4668.99Z" fill="#455A64"/>
<path d="M9647.63 4972.22L8546.44 5460.1C8501.14 5480.33 8471.64 5518.76 8482.97 5545.98C8494.29 5573.01 8538.01 5579.08 8583.32 5558.85L9684.51 5070.97C9730.07 5050.74 9758.78 5012.49 9747.98 4985.28C9737.18 4957.87 9692.94 4951.99 9647.63 4972.22Z" fill="#455A64"/>
<path d="M9763.79 5264.62L7080.31 6455.17C7034.9 6475.4 7007.3 6512.92 7019.68 6539.03C7032.06 6565.14 7079.34 6569.92 7124.74 6549.69L9808.3 5359.33C9853.87 5339.1 9880.2 5301.77 9867.82 5275.47C9855.45 5249.17 9807.51 5244.39 9763.79 5264.62Z" fill="#455A64"/>
<path d="M9904.95 5543.96L7221.84 6734.32C7176.14 6754.55 7151.07 6791.14 7166.29 6815.97C7181.54 6840.98 7229.79 6844.84 7276.12 6824.61L9959.73 5634.25C10005.3 5613.84 10029.8 5577.43 10014.5 5552.42C9999.24 5527.59 9950.77 5523.91 9904.95 5543.96Z" fill="#455A64"/>
<path d="M10081.2 5810.04L7397.71 7000.4C7352.01 7020.63 7329.47 7056.31 7347.56 7079.85C7365.66 7103.57 7417.39 7105.96 7463.11 7085.73L10144.6 5895.37C10190.2 5875.32 10212.1 5840.01 10193.9 5816.29C10175.7 5792.75 10125.7 5789.81 10081.2 5810.04Z" fill="#455A64"/>
<path d="M10286.6 6061.6L7603.28 7251.79C7557.72 7272.02 7537.44 7306.96 7557.98 7329.21C7578.52 7351.28 7633.04 7353.48 7678.61 7333.07L10361.9 6142.7C10407.5 6122.47 10427.2 6088.09 10406.7 6065.65C10385.9 6043.21 10332.4 6041.37 10286.6 6061.6Z" fill="#455A64"/>
<path d="M10520.7 6300.88L7837.41 7491.06C7791.85 7511.29 7773.94 7545.31 7796.59 7566.45C7819.5 7587.6 7875.86 7588.71 7921.43 7568.48L10605 6377.56C10650.3 6357.33 10668.5 6323.86 10645 6302.72C10621.3 6281.38 10566.6 6279.91 10520.7 6300.88Z" fill="#455A64"/>
<path d="M10779.6 6528.74L8097.11 7718.92C8051.28 7739.15 8033.63 7772.25 8060.23 7792.11C8086.83 7811.79 8143.46 7812.34 8188.76 7792.11L10872.3 6601.56C10917.9 6581.33 10933.7 6548.78 10908.4 6528.55C10883.1 6508.33 10826 6508.69 10779.6 6528.74Z" fill="#455A64"/>
<path d="M11065.2 6746.44L8381.84 7936.62C8336.27 7956.85 8321.53 7989.4 8349.97 8008.52C8378.68 8027.83 8436.88 8027.1 8482.71 8006.87L11163.9 6816.5C11209.2 6796.28 11223.7 6764.46 11195.8 6744.97C11167.9 6725.48 11109.7 6726.21 11065.2 6746.44Z" fill="#455A64"/>
<path d="M7924.6 4364.06L6658.74 4924.94C6672.72 5277.29 6725.08 5785.58 6916.82 6297.55L8182.97 5736.66C7990.97 5224.69 7938.56 4716.22 7924.6 4364.06Z" fill="#02897A"/>
<path opacity="0.8" d="M7924.6 4364.06L6658.74 4924.94C6672.72 5277.29 6725.08 5785.58 6916.82 6297.55L8182.97 5736.66C7990.97 5224.69 7938.56 4716.22 7924.6 4364.06Z" fill="#11B5E4"/>
<path d="M7174.88 4847.33C7176.6 4824.71 7171.99 4801.9 7161.37 4780.57C7150.73 4759.24 7134.35 4739.93 7113.31 4723.93L6658.74 4925.48C6662.56 5018.54 6668.9 5122.8 6680.02 5234.98C6739.15 5240.13 6798.96 5231.67 6851.74 5210.52C7030.45 5147.63 7174.88 4984.51 7174.88 4847.33Z" fill="#02897A"/>
<path opacity="0.6" d="M7174.88 4847.33C7176.6 4824.71 7171.99 4801.9 7161.37 4780.57C7150.73 4759.24 7134.35 4739.93 7113.31 4723.93L6658.74 4925.48C6662.56 5018.54 6668.9 5122.8 6680.02 5234.98C6739.15 5240.13 6798.96 5231.67 6851.74 5210.52C7030.45 5147.63 7174.88 4984.51 7174.88 4847.33Z" fill="white"/>
<path d="M8075.53 5399.97C7990.98 5318.32 7819.26 5066.01 7746.04 4955.86C7743.14 4951.63 7738.66 4947.95 7732.87 4945.75C7727.34 4943.36 7721.02 4942.25 7714.7 4942.8C7708.37 4943.17 7702.32 4945.01 7697.58 4948.14C7692.57 4951.26 7688.89 4955.49 7687.3 4960.09C7607.76 5168.45 7561.94 5383.42 7550.08 5600.24C7444.36 5535.87 7353.5 5458.08 7281.23 5370.55C7278.14 5367.24 7273.88 5364.48 7268.9 5362.82C7263.92 5361.35 7258.47 5360.8 7253.15 5361.54C7247.85 5362.27 7242.93 5364.11 7238.95 5367.06C7235 5369.81 7232.16 5373.31 7230.76 5377.35C7092.36 5786.89 7161.89 6189.81 7161.89 6189.81L8182.99 5736.69C8140.58 5623.41 8105.29 5510.86 8075.53 5399.97Z" fill="#02897A"/>
<path opacity="0.6" d="M8075.53 5399.97C7990.98 5318.32 7819.26 5066.01 7746.04 4955.86C7743.14 4951.63 7738.66 4947.95 7732.87 4945.75C7727.34 4943.36 7721.02 4942.25 7714.7 4942.8C7708.37 4943.17 7702.32 4945.01 7697.58 4948.14C7692.57 4951.26 7688.89 4955.49 7687.3 4960.09C7607.76 5168.45 7561.94 5383.42 7550.08 5600.24C7444.36 5535.87 7353.5 5458.08 7281.23 5370.55C7278.14 5367.24 7273.88 5364.48 7268.9 5362.82C7263.92 5361.35 7258.47 5360.8 7253.15 5361.54C7247.85 5362.27 7242.93 5364.11 7238.95 5367.06C7235 5369.81 7232.16 5373.31 7230.76 5377.35C7092.36 5786.89 7161.89 6189.81 7161.89 6189.81L8182.99 5736.69C8140.58 5623.41 8105.29 5510.86 8075.53 5399.97Z" fill="white"/>
</svg>
